<svg width="23" height="23" viewBox="0 0 23 23" fill="none" xmlns="http://www.w3.org/2000/svg">
<g clip-path="url(#clip0)">
<path d="M11.5 14.375C13.0878 14.375 14.375 13.0878 14.375 11.5C14.375 9.91218 13.0878 8.625 11.5 8.625C9.91218 8.625 8.625 9.91218 8.625 11.5C8.625 13.0878 9.91218 14.375 11.5 14.375Z" stroke="#EDF7FF" stroke-width="3" stroke-linecap="round" stroke-linejoin="round"/>
<path d="M18.5918 14.3749C18.4643 14.664 18.4262 14.9846 18.4826 15.2955C18.5389 15.6064 18.6871 15.8932 18.9081 16.1191L18.9656 16.1766C19.1438 16.3546 19.2852 16.566 19.3816 16.7987C19.4781 17.0313 19.5277 17.2807 19.5277 17.5326C19.5277 17.7845 19.4781 18.0339 19.3816 18.2666C19.2852 18.4993 19.1438 18.7107 18.9656 18.8887C18.7876 19.0669 18.5762 19.2082 18.3435 19.3047C18.1108 19.4012 17.8614 19.4508 17.6095 19.4508C17.3577 19.4508 17.1082 19.4012 16.8756 19.3047C16.6429 19.2082 16.4315 19.0669 16.2535 18.8887L16.196 18.8312C15.9701 18.6102 15.6833 18.462 15.3724 18.4057C15.0615 18.3493 14.7409 18.3873 14.4518 18.5149C14.1684 18.6364 13.9266 18.8381 13.7564 19.0952C13.5861 19.3523 13.4947 19.6536 13.4935 19.962V20.1249C13.4935 20.6332 13.2916 21.1208 12.9321 21.4802C12.5727 21.8396 12.0852 22.0416 11.5768 22.0416C11.0685 22.0416 10.581 21.8396 10.2215 21.4802C9.8621 21.1208 9.66016 20.6332 9.66016 20.1249V20.0387C9.65274 19.7215 9.55007 19.4138 9.36548 19.1558C9.1809 18.8977 8.92295 18.7011 8.62516 18.5916C8.33611 18.464 8.01548 18.426 7.7046 18.4823C7.39372 18.5387 7.10685 18.6869 6.881 18.9078L6.8235 18.9653C6.64549 19.1435 6.4341 19.2849 6.20142 19.3814C5.96874 19.4778 5.71933 19.5275 5.46745 19.5275C5.21557 19.5275 4.96616 19.4778 4.73349 19.3814C4.50081 19.2849 4.28942 19.1435 4.11141 18.9653C3.93321 18.7873 3.79184 18.5759 3.69538 18.3433C3.59893 18.1106 3.54928 17.8612 3.54928 17.6093C3.54928 17.3574 3.59893 17.108 3.69538 16.8753C3.79184 16.6426 3.93321 16.4313 4.11141 16.2532L4.16891 16.1958C4.38984 15.9699 4.53805 15.683 4.59442 15.3721C4.65078 15.0613 4.61273 14.7406 4.48516 14.4516C4.36368 14.1681 4.16197 13.9264 3.90486 13.7561C3.64775 13.5859 3.34646 13.4945 3.03808 13.4933H2.87516C2.36683 13.4933 1.87932 13.2913 1.51987 12.9319C1.16043 12.5724 0.958496 12.0849 0.958496 11.5766C0.958496 11.0683 1.16043 10.5807 1.51987 10.2213C1.87932 9.86185 2.36683 9.65992 2.87516 9.65992H2.96141C3.27862 9.6525 3.58625 9.54982 3.84432 9.36524C4.1024 9.18066 4.29897 8.92271 4.4085 8.62492C4.53606 8.33587 4.57412 8.01523 4.51775 7.70435C4.46138 7.39348 4.31318 7.10661 4.09225 6.88075L4.03475 6.82325C3.85654 6.64524 3.71517 6.43386 3.61871 6.20118C3.52226 5.9685 3.47261 5.71909 3.47261 5.46721C3.47261 5.21533 3.52226 4.96592 3.61871 4.73324C3.71517 4.50056 3.85654 4.28918 4.03475 4.11117C4.21275 3.93296 4.42414 3.79159 4.65682 3.69514C4.8895 3.59868 5.13891 3.54904 5.39079 3.54904C5.64267 3.54904 5.89208 3.59868 6.12476 3.69514C6.35744 3.79159 6.56882 3.93296 6.74683 4.11117L6.80433 4.16867C7.03019 4.3896 7.31705 4.5378 7.62793 4.59417C7.93881 4.65054 8.25945 4.61249 8.5485 4.48492H8.62516C8.90861 4.36344 9.15035 4.16173 9.32062 3.90461C9.49089 3.6475 9.58227 3.34621 9.5835 3.03784V2.87492C9.5835 2.36659 9.78543 1.87908 10.1449 1.51963C10.5043 1.16019 10.9918 0.958252 11.5002 0.958252C12.0085 0.958252 12.496 1.16019 12.8554 1.51963C13.2149 1.87908 13.4168 2.36659 13.4168 2.87492V2.96117C13.4181 3.26955 13.5094 3.57084 13.6797 3.82795C13.85 4.08506 14.0917 4.28677 14.3752 4.40825C14.6642 4.53582 14.9848 4.57387 15.2957 4.51751C15.6066 4.46114 15.8935 4.31293 16.1193 4.092L16.1768 4.0345C16.3548 3.8563 16.5662 3.71493 16.7989 3.61847C17.0316 3.52202 17.281 3.47237 17.5329 3.47237C17.7847 3.47237 18.0342 3.52202 18.2668 3.61847C18.4995 3.71493 18.7109 3.8563 18.8889 4.0345C19.0671 4.21251 19.2085 4.42389 19.3049 4.65657C19.4014 4.88925 19.451 5.13866 19.451 5.39054C19.451 5.64242 19.4014 5.89183 19.3049 6.12451C19.2085 6.35719 19.0671 6.56858 18.8889 6.74658L18.8314 6.80408C18.6105 7.02994 18.4623 7.31681 18.4059 7.62769C18.3495 7.93857 18.3876 8.2592 18.5152 8.54825V8.62492C18.6366 8.90836 18.8384 9.1501 19.0955 9.32037C19.3526 9.49065 19.6539 9.58202 19.9622 9.58325H20.1252C20.6335 9.58325 21.121 9.78519 21.4804 10.1446C21.8399 10.5041 22.0418 10.9916 22.0418 11.4999C22.0418 12.0082 21.8399 12.4958 21.4804 12.8552C21.121 13.2146 20.6335 13.4166 20.1252 13.4166H20.0389C19.7305 13.4178 19.4292 13.5092 19.1721 13.6795C18.915 13.8497 18.7133 14.0915 18.5918 14.3749V14.3749Z" stroke="#EDF7FF" stroke-width="3" stroke-linecap="round" stroke-linejoin="round"/>
</g>
<defs>
<clipPath id="clip0">
<rect width="23" height="23" fill="white"/>
</clipPath>
</defs>
</svg>
